<svg xmlns="http://www.w3.org/2000/svg" viewBox="0 0 900 260" role="img" aria-labelledby="t"><title id="t">Quantic OS — The Intelligence Layer</title><defs><linearGradient id="g" x1="30" y1="25" x2="230" y2="220" gradientUnits="userSpaceOnUse"><stop stop-color="#00D9FF"/><stop offset=".45" stop-color="#14B8A6"/><stop offset="1" stop-color="#0A1F3D"/></linearGradient></defs><g transform="translate(10 8)"><path d="M120 22a78 78 0 1 0 58 130" fill="none" stroke="url(#g)" stroke-width="18" stroke-linecap="round"/><path d="M22 178c38-30 72-40 106-27 35 13 60 8 99-19-29 38-61 60-99 65-39 5-74-3-106-19Z" fill="url(#g)"/><path d="M41 177c30-18 57-22 83-12 29 10 50 8 77-4-26 22-51 32-77 32-30 0-57-6-83-16Z" fill="#fff" opacity=".72"/></g><text x="257" y="119" fill="#0A1F3D" font-family="Space Grotesk,Inter,Arial,sans-serif" font-size="76" font-weight="500" letter-spacing="5">QUANTIC OS</text><text x="263" y="174" fill="#2D78A5" font-family="Inter,Arial,sans-serif" font-size="19" letter-spacing="10">THE INTELLIGENCE LAYER</text><path d="M263 198h440" stroke="#C9D1D9" stroke-width="2"/><text x="263" y="228" fill="#526D7D" font-family="Inter,Arial,sans-serif" font-size="15" letter-spacing="4">A MORE CAPABLE WORLD</text></svg>